Coordinates
version=1
nRows=25
nColumns=33
inDegrees=yes

Units are S.I. units (second, meters, Newtons, ...)
Angles are in degrees.

endheader
time	ground_thorax_rot_x	ground_thorax_rot_y	ground_thorax_rot_z	ground_thorax_tx	ground_thorax_ty	ground_thorax_tz	clav_prot_r	clav_elev_r	scapula_abduction_r	scapula_elevation_r	scapula_upward_rot_r	scapula_winging_r	shoulder_elv_r	plane_of_elev_r	axial_rot_r	elbow_flexion_r	pro_sup_r	wrist_flex_r	wrist_dev_r	clav_prot_l	clav_elev_l	scapula_abduction_l	scapula_elevation_l	scapula_upward_rot_l	scapula_winging_l	shoulder_elv_l	plane_of_elev_l	axial_rot_l	elbow_flexion_l	pro_sup_l	wrist_flex_l	wrist_dev_l	
9.2700	23.782355	31.431686	46.566659	-111.052633	842.083824	-45.422567	13.130051	33.641457	26.211979	45.000000	-45.000000	2427.732090	-643.968120	20.768009	-154.217660	1437.634971	-204.107383	16.295548	14.296779	-4.453096	-45.000000	-44.219417	45.000000	-45.000000	4788.528323	-5319.510395	25.133286	25.094622	-11.316286	396.704604	13.772337	-21.961913	
9.2800	24.134286	31.109847	46.073920	-110.788734	843.021412	-45.419820	13.079086	33.673738	26.262635	45.000000	-45.000000	2427.999361	-644.154298	20.832254	-154.834620	1437.705946	-203.732784	16.345296	14.263598	-4.693691	-45.000000	-43.785638	45.000000	-45.000000	4788.309158	-5319.579677	25.184382	25.311879	-11.236197	396.606748	13.787317	-21.947067	
9.2900	24.614529	30.674617	45.394834	-110.534301	844.366607	-45.422393	13.005579	33.737527	26.346163	45.000000	-45.000000	2428.361409	-644.442473	20.904840	-155.725537	1437.833781	-203.404455	16.393528	14.185026	-4.915672	-45.000000	-43.189081	45.000000	-45.000000	4788.045422	-5319.655064	25.281600	25.610909	-11.145861	396.546152	13.865235	-21.928033	
9.3000	25.234446	30.136761	44.481545	-110.261301	846.019906	-45.428110	12.908340	33.793757	26.412286	45.000000	-45.000000	2428.808229	-644.773770	20.997346	-156.765726	1437.911161	-203.097829	16.438434	14.132289	-5.321240	-45.000000	-42.488297	45.000000	-45.000000	4787.669981	-5319.747433	25.387063	26.066022	-11.068661	396.510593	13.879117	-21.903540	
9.3100	25.801836	29.643537	43.640881	-109.935043	847.525138	-45.429296	12.810442	33.844171	26.476320	45.000000	-45.000000	2429.229725	-645.076361	21.075589	-157.744358	1437.969493	-202.802426	16.487492	14.082937	-5.685569	-45.000000	-41.856131	45.000000	-45.000000	4787.322979	-5319.836344	25.494872	26.506751	-11.002705	396.503377	13.889251	-21.881224	
9.3200	26.297149	29.214699	42.905743	-109.544092	848.830376	-45.424301	12.733528	33.885649	26.528183	45.000000	-45.000000	2429.596477	-645.339090	21.162092	-158.611255	1438.010773	-202.514340	16.532743	14.052129	-6.034298	-45.000000	-41.306905	45.000000	-45.000000	4787.000348	-5319.910185	25.592670	26.937267	-10.957335	396.518442	13.889934	-21.857328	
9.3300	26.581647	28.959964	42.493037	-109.061859	849.590684	-45.407496	12.686209	33.911089	26.573748	45.000000	-45.000000	2429.837050	-645.500129	21.218790	-159.198972	1438.041411	-202.224468	16.578917	14.031888	-6.229417	-45.000000	-40.980454	45.000000	-45.000000	4786.796496	-5319.961210	25.667172	27.235108	-10.929982	396.544979	13.901622	-21.837741	
9.3400	26.683878	28.856467	42.362541	-108.492333	849.894120	-45.380275	12.682380	33.922948	26.608801	45.000000	-45.000000	2429.951250	-645.579154	21.275152	-159.533629	1438.070261	-201.937643	16.616248	14.033936	-6.328207	-45.000000	-40.833608	45.000000	-45.000000	4786.681221	-5319.981733	25.711141	27.431825	-10.920837	396.572794	13.919972	-21.818347	
9.3500	26.638051	28.874837	42.460618	-107.839051	849.814254	-45.344613	12.704716	33.923614	26.646818	45.000000	-45.000000	2429.981330	-645.590322	21.301669	-159.662621	1438.091076	-201.665791	16.651471	14.042155	-6.330564	-45.000000	-40.841687	45.000000	-45.000000	4786.644660	-5319.985006	25.732970	27.539015	-10.921531	396.594132	13.944690	-21.798912	
9.3600	26.591703	28.898866	42.566249	-107.126233	849.725923	-45.307631	12.735545	33.924428	26.691565	45.000000	-45.000000	2430.002724	-645.605854	21.335092	-159.777073	1438.113168	-201.428897	16.676427	14.060553	-6.357988	-45.000000	-40.846940	45.000000	-45.000000	4786.595809	-5319.982161	25.749024	27.666101	-10.929767	396.609664	13.964277	-21.774165	
9.3700	26.540679	28.928194	42.683822	-106.354099	849.628636	-45.271219	12.764500	33.927449	26.744958	45.000000	-45.000000	2430.035260	-645.625691	21.351797	-159.899758	1438.134608	-201.231990	16.696718	14.072518	-6.372099	-45.000000	-40.855825	45.000000	-45.000000	4786.550931	-5319.980621	25.766288	27.794290	-10.935249	396.622974	13.991923	-21.746880	
9.3800	26.491189	28.958734	42.806416	-105.523303	849.522361	-45.237112	12.791327	33.931168	26.808653	45.000000	-45.000000	2430.061680	-645.651367	21.370934	-160.020687	1438.153430	-201.068200	16.710231	14.092758	-6.395882	-45.000000	-40.858120	45.000000	-45.000000	4786.501276	-5319.978857	25.782771	27.929252	-10.940898	396.634632	14.015739	-21.717892	
9.3900	26.442725	28.989568	42.931135	-104.635252	849.407415	-45.206623	12.822291	33.939234	26.872051	45.000000	-45.000000	2430.099459	-645.674452	21.383543	-160.146918	1438.164567	-200.935570	16.721343	14.105851	-6.416346	-45.000000	-40.857677	45.000000	-45.000000	4786.450820	-5319.978251	25.803221	28.070666	-10.944824	396.648271	14.049930	-21.685694	
9.4000	26.406046	29.015810	43.047751	-103.691668	849.284240	-45.180404	12.845537	33.947203	26.948098	45.000000	-45.000000	2430.133208	-645.701567	21.399802	-160.275650	1438.172681	-200.826318	16.728487	14.127215	-6.435719	-45.000000	-40.843939	45.000000	-45.000000	4786.395697	-5319.983260	25.831236	28.220197	-10.951677	396.662143	14.080910	-21.651477	
9.4100	26.365772	29.046907	43.171897	-102.694523	849.153322	-45.158385	12.878686	33.958832	27.015192	45.000000	-45.000000	2430.173822	-645.724047	21.418340	-160.411858	1438.175848	-200.736732	16.728435	14.147420	-6.467240	-45.000000	-40.827009	45.000000	-45.000000	4786.333254	-5319.983498	25.856499	28.379159	-10.958765	396.677994	14.120347	-21.612293	
9.4200	26.337594	29.070382	43.284474	-101.645777	849.015137	-45.139819	12.901108	33.965253	27.105427	45.000000	-45.000000	2430.209647	-645.756317	21.434875	-160.553308	1438.176891	-200.662519	16.725550	14.179662	-6.490070	-45.000000	-40.802456	45.000000	-45.000000	4786.270319	-5319.994178	25.891008	28.547187	-10.966277	396.692509	14.153097	-21.570966	
9.4300	26.306356	29.099923	43.402738	-100.547352	848.870209	-45.123485	12.930958	33.975983	27.182837	45.000000	-45.000000	2430.251857	-645.780747	21.456720	-160.703378	1438.173001	-200.601461	16.715249	14.212145	-6.523960	-45.000000	-40.779909	45.000000	-45.000000	4786.200861	-5320.002980	25.921757	28.725542	-10.973192	396.708121	14.195092	-21.525053	
9.4400	26.283400	29.126601	43.514653	-99.400883	848.719098	-45.107922	12.952673	33.982963	27.273146	45.000000	-45.000000	2430.290742	-645.810824	21.480506	-160.860270	1438.169222	-200.550404	16.702247	14.254712	-6.546595	-45.000000	-40.753636	45.000000	-45.000000	4786.132907	-5320.020291	25.960431	28.912706	-10.983200	396.722623	14.230376	-21.474861	
9.4500	26.244075	29.165453	43.646990	-98.207794	848.562383	-45.091694	12.983856	33.998390	27.344043	45.000000	-45.000000	2430.338797	-645.834515	21.507278	-161.028032	1438.163889	-200.507337	16.680843	14.293096	-6.581327	-45.000000	-40.734356	45.000000	-45.000000	4786.060111	-5320.025904	25.989611	29.107714	-10.993893	396.739398	14.276846	-21.417895	
9.4600	26.200403	29.205373	43.785172	-96.969366	848.400519	-45.073592	13.006685	34.009060	27.429753	45.000000	-45.000000	2430.386499	-645.870314	21.528120	-161.204564	1438.162301	-200.469303	16.657276	14.338145	-6.601347	-45.000000	-40.718719	45.000000	-45.000000	4785.993716	-5320.035752	26.024288	29.306858	-11.007357	396.756818	14.315088	-21.354958	
9.4700	26.139185	29.258766	43.943594	-95.687047	848.233645	-45.052763	13.035346	34.028416	27.494343	45.000000	-45.000000	2430.443760	-645.899450	21.551709	-161.390612	1438.158890	-200.433166	16.624393	14.379903	-6.631672	-45.000000	-40.711024	45.000000	-45.000000	4785.922021	-5320.035214	26.049098	29.509268	-11.020999	396.779235	14.365582	-21.286949	
9.4800	26.071155	29.316396	44.108875	-94.362604	848.061352	-45.028788	13.051493	34.040965	27.561175	45.000000	-45.000000	2430.504020	-645.936261	21.573716	-161.587955	1438.158592	-200.396451	16.590555	14.426549	-6.646437	-45.000000	-40.709016	45.000000	-45.000000	4785.857327	-5320.039817	26.080424	29.712800	-11.037206	396.805552	14.405839	-21.213294	
9.4900	25.989552	29.384107	44.288356	-92.998430	847.882528	-45.001677	13.064130	34.059212	27.612170	45.000000	-45.000000	2430.573114	-645.969122	21.597100	-161.796028	1438.154986	-200.353848	16.546467	14.473827	-6.664544	-45.000000	-40.714516	45.000000	-45.000000	4785.789419	-5320.039226	26.104401	29.918197	-11.050138	396.839376	14.456727	-21.138052	
9.5000	25.910263	29.451721	44.463582	-91.597525	847.695312	-44.971858	13.062023	34.066175	27.667136	45.000000	-45.000000	2430.642762	-646.006605	21.623416	-162.013630	1438.152167	-200.302809	16.503841	14.526510	-6.666847	-45.000000	-40.723404	45.000000	-45.000000	4785.729183	-5320.052465	26.139600	30.123680	-11.062597	396.879242	14.492956	-21.059327	
9.5100	25.831717	29.522752	44.638825	-90.163366	847.497204	-44.940098	13.059483	34.081025	27.714017	45.000000	-45.000000	2430.714515	-646.038096	21.656347	-162.235906	1438.142969	-200.236104	16.449572	14.582261	-6.674326	-45.000000	-40.731550	45.000000	-45.000000	4785.663517	-5320.066694	26.171650	30.332919	-11.070126	396.928474	14.540733	-20.982603	
